<svg id="visual" viewBox="0 0 1200 630" width="1200" height="630" xmlns="http://www.w3.org/2000/svg" xmlns:xlink="http://www.w3.org/1999/xlink" version="1.1"><path d="M0 222L120 140L240 215L360 234L480 222L600 184L720 121L840 209L960 159L1080 253L1200 159L1200 0L1080 0L960 0L840 0L720 0L600 0L480 0L360 0L240 0L120 0L0 0Z" fill="#0f172a"></path><path d="M0 266L120 209L240 297L360 278L480 303L600 272L720 234L840 303L960 234L1080 329L1200 278L1200 157L1080 251L960 157L840 207L720 119L600 182L480 220L360 232L240 213L120 138L0 220Z" fill="#1a2f57"></path><path d="M0 348L120 303L240 360L360 373L480 398L600 335L720 316L840 366L960 278L1080 398L1200 354L1200 276L1080 327L960 232L840 301L720 232L600 270L480 301L360 276L240 295L120 207L0 264Z" fill="#254989"></path><path d="M0 524L120 537L240 505L360 492L480 568L600 511L720 574L840 574L960 555L1080 492L1200 511L1200 352L1080 396L960 276L840 364L720 314L600 333L480 396L360 371L240 358L120 301L0 346Z" fill="#3065be"></path><path d="M0 631L120 631L240 631L360 631L480 631L600 631L720 631L840 631L960 631L1080 631L1200 631L1200 509L1080 490L960 553L840 572L720 572L600 509L480 566L360 490L240 503L120 535L0 522Z" fill="#3b82f6"></path></svg>